<svg xmlns="http://www.w3.org/2000/svg" version="1.1" xmlns:xlink="http://www.w3.org/1999/xlink" xmlns:svgjs="http://svgjs.dev/svgjs" width="100%" height="100%" viewBox="0 0 1000 600"><rect width="1000" height="600" x="0" y="0" fill="#ee4e34"/><g><rect width="333.3333333333333" height="333.3333333333333" rx="13.333333333333334" ry="13.333333333333334" y="77.77777014838344" fill="#fcedda" transform="matrix(2.2499999313354513,0,0,2.2499999313354517,0,-249.99999084472722)" x="55.55555725097656"/><path d="M228.63172637932774 319.44443723890504L213.27564364092302 319.44443723890504L165.20442811200394 191.87767454827352Q161.99968041007602 183.86580529345363 158.1272769369131 181.3287133627607Q154.29938384849916 178.74711104731875 143.70591227823735 178.74711104731875L143.70591227823735 178.74711104731875L143.70591227823735 169.44444063477795L210.3824686322381 169.44444063477795L210.3824686322381 178.74711104731875L197.56347782452633 178.74711104731875Q193.0679289648774 178.74711104731875 191.95516934615245 181.64028605600373Q190.84240972742748 184.53346106468868 192.08870050039945 188.67292684634558L192.08870050039945 188.67292684634558L228.94329907257074 288.9993340705896L229.61095484380573 288.9993340705896L266.153980722734 188.3613541531026Q267.400271495706 184.84503375793165 266.465553415977 181.8183275949997Q265.48632495149906 178.74711104731875 261.3468591698421 178.74711104731875L261.3468591698421 178.74711104731875L247.23706720440939 178.74711104731875L247.23706720440939 169.44444063477795L300.73854967270637 169.44444063477795L300.73854967270637 178.74711104731875Q290.50116118043655 178.74711104731875 286.31718501403066 181.64028605600373Q282.17771923237376 184.53346106468868 278.97297153044576 191.87767454827352L278.97297153044576 191.87767454827352L228.63172637932774 319.44443723890504Z " fill="#ee4e34" transform="matrix(2.2499999313354513,0,0,2.2499999313354517,0,-249.99999084472722)"/><path d="MNaN 244.44444105360233 " fill="#fcedda" transform="matrix(2.2499999313354513,0,0,2.2499999313354517,0,-249.99999084472722)"/></g></svg>